<?xml version="1.0" standalone="no"?>
<!DOCTYPE svg PUBLIC "-//W3C//DTD SVG 20010904//EN"
 "http://www.w3.org/TR/2001/REC-SVG-20010904/DTD/svg10.dtd">
<svg version="1.0" xmlns="http://www.w3.org/2000/svg"
 width="512.000000pt" height="512.000000pt" viewBox="0 0 512.000000 512.000000"
 preserveAspectRatio="xMidYMid meet">
<metadata>
Created by potrace 1.14, written by Peter Selinger 2001-2017
</metadata>
<g transform="translate(0.000000,512.000000) scale(0.100000,-0.100000)"
fill="#000000" stroke="none">
<path d="M459 4661 l-29 -29 0 -2072 0 -2072 29 -29 29 -29 2077 0 2076 0 24
25 25 24 0 2079 c0 2033 0 2080 -19 2103 l-19 24 -2082 3 -2081 2 -30 -29z
m2445 -1424 c137 -65 228 -184 261 -342 12 -56 15 -162 15 -521 0 -439 -1
-451 -20 -472 -30 -32 -47 -34 -253 -30 -163 3 -189 5 -204 21 -17 16 -18 52
-23 430 -5 402 -6 413 -27 454 -39 71 -123 111 -207 98 -76 -13 -121 -48 -153
-120 -16 -36 -18 -82 -21 -442 l-3 -403 -26 -20 c-24 -18 -40 -20 -219 -20
-189 0 -193 0 -221 24 l-28 24 -3 624 c-2 437 0 634 8 661 18 61 49 69 251 65
217 -4 212 0 219 -161 l5 -112 26 50 c57 107 156 188 269 220 38 10 89 14 166
12 104 -3 115 -5 188 -40z m905 -917 c48 -24 106 -86 126 -132 19 -48 19 -135
0 -182 -21 -49 -80 -113 -126 -136 -146 -75 -328 15 -358 175 -25 131 51 256
177 292 57 15 132 9 181 -17z"/>
</g>
</svg>
