<svg width="2386" height="1446" viewBox="0 0 2386 1446" fill="none" xmlns="http://www.w3.org/2000/svg">
<path d="M2010.75 1143.12L1922.63 1235.98C1919.59 1239.19 1914.52 1239.32 1911.32 1236.28L1859.89 1187.47C1856.68 1184.43 1856.55 1179.37 1859.59 1176.16L2015.03 1012.36C2018.07 1009.16 2023.14 1009.03 2026.34 1012.07L2074.57 1057.84C2077.78 1060.88 2077.91 1065.94 2074.87 1069.15L2049.74 1095.62C2049.19 1096.21 2049.21 1097.14 2049.8 1097.7V1097.7C2050.25 1098.13 2050.93 1098.23 2051.49 1097.94C2065.56 1090.82 2080.22 1088.62 2095.48 1091.35C2111.14 1094.2 2125.41 1101.74 2138.27 1113.94C2150.68 1125.72 2158.74 1138.8 2162.46 1153.18C2166.33 1167.55 2166.08 1182.07 2161.71 1196.74C2157.42 1211.48 2149.2 1225.17 2137.06 1237.81L2036.37 1343.92C2033.33 1347.12 2028.26 1347.25 2025.06 1344.21L1973.63 1295.41C1970.42 1292.37 1970.29 1287.3 1973.33 1284.1L2061.45 1191.23C2069.77 1182.63 2074.02 1173.72 2074.23 1164.51C2074.51 1155.37 2070.69 1147.04 2062.77 1139.53C2057.6 1134.62 2051.98 1131.46 2045.93 1130.06C2040.03 1128.66 2034.07 1129.07 2028.04 1131.31C2022.08 1133.47 2016.32 1137.41 2010.75 1143.12Z" fill="white"/>
<path d="M2092.77 1415.41C2083.94 1407.03 2079.29 1396.76 2078.82 1384.6C2078.5 1372.43 2082.61 1361.93 2091.14 1353.1C2099.3 1344.35 2109.42 1339.85 2121.52 1339.61C2133.69 1339.44 2144.19 1343.54 2153.02 1351.92C2161.4 1359.87 2165.86 1369.96 2166.4 1382.19C2167.02 1394.5 2163.25 1405.03 2155.09 1413.78C2149.38 1419.65 2142.69 1423.57 2135.02 1425.56C2127.5 1427.53 2119.97 1427.69 2112.42 1426.04C2104.95 1424.3 2098.4 1420.76 2092.77 1415.41Z" fill="white"/>
<path d="M1152.5 186.91L1132.48 313.354C1131.78 317.718 1127.69 320.695 1123.32 320.004L1053.29 308.913C1048.93 308.222 1045.95 304.124 1046.64 299.76L1081.97 76.7262C1082.66 72.3623 1086.76 69.385 1091.12 70.0762L1156.8 80.4781C1161.16 81.1692 1164.14 85.2672 1163.45 89.6311L1157.74 125.682C1157.61 126.484 1158.16 127.236 1158.96 127.363V127.363C1159.58 127.461 1160.19 127.153 1160.49 126.602C1168.05 112.764 1178.89 102.648 1193 96.2541C1207.53 89.7353 1223.55 87.8633 1241.07 90.638C1257.97 93.3142 1272.02 99.5247 1283.23 109.27C1294.56 118.927 1302.57 131.036 1307.28 145.595C1312.09 160.171 1313.08 176.107 1310.23 193.402L1287.35 337.883C1286.66 342.247 1282.56 345.224 1278.19 344.533L1208.16 333.442C1203.8 332.751 1200.82 328.653 1201.51 324.289L1221.54 197.845C1223.52 186.044 1221.98 176.29 1216.93 168.583C1211.99 160.893 1204.12 156.194 1193.34 154.487C1186.29 153.37 1179.88 153.948 1174.1 156.221C1168.44 158.406 1163.76 162.128 1160.06 167.386C1156.37 172.54 1153.85 179.048 1152.5 186.91Z" fill="white"/>
<path d="M1374.33 364.86C1362.3 362.955 1352.65 357.123 1345.38 347.364C1338.22 337.517 1335.66 326.538 1337.68 314.426C1339.45 302.592 1345.25 293.15 1355.08 286.1C1365.02 279.066 1375.99 276.501 1388.02 278.406C1399.42 280.212 1408.81 286.003 1416.19 295.779C1423.67 305.571 1426.53 316.384 1424.76 328.218C1423.38 336.287 1420.08 343.31 1414.89 349.288C1409.81 355.178 1403.69 359.576 1396.54 362.481C1389.4 365.282 1382 366.075 1374.33 364.86Z" fill="white"/>
<path d="M2075.54 434.503L2025.52 552.346C2023.8 556.413 2019.1 558.31 2015.03 556.584L1949.77 528.88C1945.7 527.154 1943.8 522.458 1945.53 518.391L2033.76 310.528C2035.49 306.461 2040.18 304.563 2044.25 306.29L2105.46 332.271C2109.53 333.997 2111.42 338.694 2109.7 342.761L2095.44 376.36C2095.12 377.107 2095.47 377.969 2096.21 378.286V378.286C2096.79 378.532 2097.46 378.381 2097.89 377.919C2108.57 366.321 2121.53 359.127 2136.77 356.337C2152.44 353.526 2168.44 355.586 2184.77 362.517C2200.52 369.201 2212.65 378.627 2221.17 390.794C2229.82 402.905 2234.68 416.594 2235.72 431.86C2236.86 447.166 2233.96 462.866 2227.02 478.959L2169.86 613.613C2168.13 617.68 2163.44 619.577 2159.37 617.851L2094.1 590.147C2090.04 588.421 2088.14 583.725 2089.86 579.658L2139.89 461.814C2144.66 450.842 2145.53 441.006 2142.49 432.307C2139.55 423.648 2133.06 417.187 2123.01 412.922C2116.44 410.133 2110.08 409.143 2103.92 409.949C2097.9 410.701 2092.46 413.18 2087.6 417.386C2082.78 421.496 2078.76 427.201 2075.54 434.503Z" fill="white"/>
<path d="M2247.73 660.83C2236.52 656.073 2228.57 648.08 2223.87 636.851C2219.31 625.566 2219.48 614.293 2224.38 603.03C2228.95 591.976 2236.86 584.217 2248.11 579.754C2259.45 575.333 2270.72 575.5 2281.93 580.257C2292.56 584.768 2300.27 592.659 2305.06 603.929C2309.95 615.24 2310.11 626.423 2305.53 637.478C2302.23 644.972 2297.34 650.991 2290.85 655.534C2284.5 660.021 2277.5 662.808 2269.86 663.896C2262.25 664.887 2254.88 663.865 2247.73 660.83Z" fill="white"/>
<path d="M1479.75 771.141L1481.98 899.142C1482.06 903.56 1478.54 907.203 1474.12 907.28L1403.23 908.518C1398.81 908.595 1395.17 905.076 1395.09 900.659L1391.15 674.879C1391.07 670.462 1394.59 666.818 1399.01 666.741L1465.49 665.58C1469.91 665.503 1473.56 669.022 1473.63 673.44L1474.27 709.935C1474.28 710.746 1474.95 711.392 1475.76 711.378V711.378C1476.39 711.367 1476.94 710.957 1477.14 710.362C1482.19 695.421 1491.1 683.577 1503.89 674.83C1517.06 665.887 1532.52 661.261 1550.25 660.952C1567.36 660.653 1582.27 664.329 1595 671.98C1607.84 679.524 1617.84 690.056 1625 703.577C1632.27 717.096 1636 732.619 1636.21 750.146L1638.76 896.405C1638.84 900.823 1635.32 904.467 1630.9 904.544L1560.01 905.781C1555.59 905.858 1551.95 902.34 1551.87 897.922L1549.64 769.921C1549.53 757.957 1546.32 748.618 1540.01 741.905C1533.81 735.19 1525.25 731.928 1514.34 732.119C1507.2 732.243 1500.98 733.926 1495.69 737.168C1490.49 740.302 1486.53 744.78 1483.8 750.601C1481.06 756.318 1479.71 763.164 1479.75 771.141Z" fill="white"/>
<path d="M1729.1 907.868C1716.93 908.081 1706.41 904.013 1697.55 895.665C1688.8 887.21 1684.37 876.843 1684.26 864.564C1683.94 852.603 1688.02 842.297 1696.47 833.647C1705.03 824.995 1715.4 820.562 1727.57 820.35C1739.12 820.149 1749.37 824.221 1758.33 832.567C1767.4 840.911 1772.09 851.064 1772.41 863.025C1772.44 871.212 1770.42 878.7 1766.34 885.489C1762.37 892.172 1757.11 897.565 1750.56 901.668C1744.02 905.666 1736.87 907.733 1729.1 907.868Z" fill="white"/>
<path d="M1067.12 1267.22L1090.45 1393.1C1091.25 1397.44 1088.38 1401.62 1084.04 1402.42L1014.32 1415.34C1009.98 1416.15 1005.81 1413.28 1005 1408.94L963.849 1186.9C963.044 1182.56 965.913 1178.38 970.257 1177.58L1035.64 1165.46C1039.98 1164.66 1044.16 1167.53 1044.96 1171.87L1051.61 1207.76C1051.76 1208.56 1052.53 1209.08 1053.33 1208.94V1208.94C1053.94 1208.82 1054.42 1208.33 1054.52 1207.71C1057.03 1192.14 1063.86 1178.98 1075.03 1168.25C1086.55 1157.25 1101.03 1150.14 1118.47 1146.91C1135.29 1143.79 1150.61 1144.95 1164.43 1150.4C1178.33 1155.72 1189.93 1164.46 1199.23 1176.61C1208.63 1188.75 1214.87 1203.44 1217.96 1220.69L1244.62 1364.52C1245.43 1368.87 1242.56 1373.04 1238.21 1373.85L1168.5 1386.77C1164.16 1387.57 1159.98 1384.71 1159.18 1380.36L1135.85 1254.48C1133.77 1242.7 1129.06 1234.02 1121.73 1228.44C1114.5 1222.84 1105.52 1221.04 1094.79 1223.03C1087.77 1224.33 1081.92 1227.01 1077.23 1231.08C1072.63 1235.03 1069.46 1240.1 1067.72 1246.3C1065.97 1252.39 1065.77 1259.36 1067.12 1267.22Z" fill="white"/>
<path d="M1335.62 1360.92C1323.65 1363.14 1312.6 1360.86 1302.49 1354.09C1292.46 1347.2 1286.38 1337.7 1284.24 1325.61C1281.96 1313.86 1284.27 1303.03 1291.19 1293.1C1298.2 1283.15 1307.7 1277.07 1319.67 1274.85C1331.02 1272.75 1341.8 1275.07 1352.02 1281.83C1362.34 1288.56 1368.64 1297.8 1370.93 1309.54C1372.32 1317.61 1371.56 1325.33 1368.65 1332.7C1365.84 1339.95 1361.54 1346.13 1355.76 1351.26C1349.97 1356.28 1343.25 1359.5 1335.62 1360.92Z" fill="white"/>
<path d="M594.732 648.812L578.022 775.737C577.446 780.117 573.427 783.201 569.047 782.624L498.752 773.37C494.371 772.793 491.287 768.774 491.864 764.394L521.339 540.512C521.915 536.132 525.934 533.048 530.315 533.625L596.239 542.304C600.62 542.881 603.703 546.899 603.127 551.28L598.362 587.468C598.257 588.273 598.823 589.011 599.627 589.117V589.117C600.25 589.198 600.855 588.874 601.141 588.315C608.338 574.284 618.905 563.888 632.844 557.127C647.197 550.23 663.165 547.939 680.751 550.254C697.712 552.487 711.922 558.328 723.381 567.776C734.958 577.134 743.29 589.028 748.377 603.46C753.568 617.905 754.968 633.809 752.576 651.173L733.482 796.204C732.905 800.584 728.887 803.668 724.506 803.091L654.211 793.836C649.831 793.26 646.747 789.241 647.324 784.861L664.034 657.936C665.7 646.087 663.908 636.377 658.659 628.805C653.514 621.247 645.531 616.755 634.709 615.33C627.633 614.399 621.237 615.145 615.519 617.568C609.919 619.9 605.337 623.743 601.774 629.096C598.225 634.346 595.878 640.917 594.732 648.812Z" fill="white"/>
<path d="M821.138 820.894C809.068 819.305 799.269 813.728 791.742 804.162C784.333 794.506 781.482 783.598 783.189 771.437C784.646 759.561 790.196 749.97 799.838 742.665C809.585 735.373 820.493 732.522 832.563 734.111C844.01 735.618 853.548 741.161 861.179 750.741C868.914 760.334 872.053 771.068 870.596 782.944C869.423 791.047 866.317 798.154 861.278 804.266C856.357 810.287 850.358 814.843 843.282 817.934C836.22 820.921 828.838 821.908 821.138 820.894Z" fill="white"/>
<path d="M184.13 1202.29L199.732 1329.35C200.271 1333.74 197.152 1337.73 192.767 1338.27L122.393 1346.91C118.008 1347.45 114.016 1344.33 113.478 1339.94L85.9583 1115.81C85.4198 1111.43 88.5384 1107.44 92.9237 1106.9L158.922 1098.8C163.307 1098.26 167.299 1101.38 167.837 1105.76L172.285 1141.99C172.384 1142.79 173.117 1143.37 173.923 1143.27V1143.27C174.546 1143.19 175.05 1142.73 175.188 1142.11C178.642 1126.73 186.27 1114.02 198.072 1103.98C210.24 1093.71 225.127 1087.49 242.732 1085.33C259.712 1083.25 274.932 1085.34 288.392 1091.62C301.943 1097.78 312.988 1107.21 321.526 1119.91C330.168 1132.6 335.505 1147.64 337.537 1165.05L355.364 1310.25C355.903 1314.63 352.784 1318.62 348.399 1319.16L278.026 1327.8C273.64 1328.34 269.649 1325.22 269.11 1320.84L253.509 1193.77C252.155 1181.88 247.989 1172.93 241.011 1166.91C234.138 1160.88 225.284 1158.53 214.451 1159.86C207.367 1160.73 201.361 1163.06 196.432 1166.83C191.594 1170.5 188.12 1175.36 186.011 1181.44C183.889 1187.41 183.262 1194.36 184.13 1202.29Z" fill="white"/>
<path d="M446.41 1312.2C434.327 1313.69 423.443 1310.74 413.761 1303.36C404.17 1295.87 398.679 1286.02 397.286 1273.82C395.724 1261.96 398.696 1251.28 406.202 1241.8C413.812 1232.3 423.659 1226.81 435.743 1225.32C447.202 1223.92 457.825 1226.89 467.611 1234.26C477.502 1241.61 483.228 1251.21 484.79 1263.08C485.684 1271.22 484.457 1278.87 481.108 1286.05C477.851 1293.11 473.185 1299.03 467.108 1303.79C461.018 1308.45 454.119 1311.26 446.41 1312.2Z" fill="white"/>
<path d="M136.848 272.803L219.991 370.151C222.86 373.51 222.463 378.56 219.103 381.429L165.189 427.476C161.829 430.346 156.78 429.949 153.91 426.589L7.25607 254.879C4.38663 251.519 4.78404 246.469 8.14373 243.6L58.7059 200.416C62.0656 197.546 67.1153 197.944 69.9848 201.303L93.69 229.059C94.217 229.676 95.1443 229.749 95.7613 229.222V229.222C96.2388 228.814 96.4026 228.147 96.1791 227.56C90.5668 212.824 89.9121 198.014 94.2151 183.131C98.6932 167.851 107.676 154.451 121.163 142.931C134.172 131.821 148.021 125.169 162.71 122.975C177.411 120.633 191.825 122.4 205.953 128.277C220.162 134.085 232.917 143.687 244.221 157.083L339.223 268.317C342.093 271.676 341.695 276.726 338.336 279.595L284.421 325.642C281.062 328.512 276.012 328.114 273.143 324.755L190 227.407C182.31 218.241 173.895 213.075 164.755 211.909C155.696 210.675 147.016 213.603 138.716 220.691C133.29 225.326 129.563 230.579 127.538 236.45C125.524 242.172 125.315 248.148 126.909 254.378C128.435 260.528 131.748 266.67 136.848 272.803Z" fill="white"/>
<path d="M416.225 219.696C406.968 227.603 396.266 231.153 384.121 230.346C371.988 229.391 361.973 224.211 354.078 214.805C346.228 205.775 342.814 195.234 343.837 183.18C344.94 171.058 350.12 161.044 359.378 153.137C368.157 145.639 378.659 142.26 390.884 142.998C403.189 143.669 413.266 148.519 421.116 157.549C426.353 163.842 429.557 170.906 430.727 178.74C431.908 186.426 431.281 193.933 428.843 201.26C426.337 208.507 422.131 214.652 416.225 219.696Z" fill="white"/>
</svg>
