<svg width="401" height="401" viewBox="0 0 401 401" fill="none" xmlns="http://www.w3.org/2000/svg">
<path d="M92.8529 250.78V386.75C92.8529 391.168 89.2712 394.75 84.8529 394.75H8.87206C4.45378 394.75 0.87207 391.168 0.87207 386.75V146.803C0.87207 142.385 4.45379 138.803 8.87207 138.803H80.1872C84.6055 138.803 88.1872 142.385 88.1872 146.803V185.905C88.1872 186.764 88.8834 187.46 89.7422 187.46V187.46C90.4068 187.46 90.997 187.036 91.2205 186.41C96.8336 170.691 106.487 158.322 120.181 149.301C134.289 140.081 150.73 135.471 169.504 135.471C187.611 135.471 203.33 139.637 216.66 147.968C230.102 156.189 240.489 167.52 247.821 181.961C255.264 196.402 258.929 212.899 258.818 231.451V386.75C258.818 391.168 255.237 394.75 250.818 394.75H174.838C170.419 394.75 166.838 391.168 166.838 386.75V250.78C166.949 238.116 163.727 228.174 157.173 220.953C150.73 213.732 141.732 210.122 130.178 210.122C122.624 210.122 116.015 211.788 110.349 215.121C104.795 218.342 100.518 223.008 97.5186 229.118C94.5192 235.117 92.964 242.337 92.8529 250.78Z" fill="black" fill-opacity="0.8"/>
<path d="M354.215 400.082C341.329 400.082 330.276 395.583 321.055 386.585C311.946 377.476 307.447 366.423 307.558 353.425C307.447 340.761 311.946 329.93 321.055 320.932C330.276 311.934 341.329 307.435 354.215 307.435C366.435 307.435 377.21 311.934 386.542 320.932C395.984 329.93 400.761 340.761 400.872 353.425C400.761 362.09 398.484 369.977 394.04 377.087C389.708 384.086 384.042 389.696 377.044 393.917C370.045 398.027 362.436 400.082 354.215 400.082Z" fill="black" fill-opacity="0.8"/>
</svg>
