<svg width="513" height="513" viewBox="0 0 513 513" fill="none" xmlns="http://www.w3.org/2000/svg">
<rect x="43.416" y="43.1855" width="426.667" height="426.667" rx="8" fill="#0F0E0E"/>
<path d="M228.278 247.246V317.791C228.278 322.21 224.696 325.791 220.278 325.791H186.096C181.677 325.791 178.096 322.21 178.096 317.791V194.155C178.096 189.737 181.677 186.155 186.096 186.155H217.732C222.15 186.155 225.732 189.737 225.732 194.155V211.852C225.732 212.321 226.112 212.701 226.58 212.701V212.701C226.943 212.701 227.265 212.469 227.387 212.128C230.449 203.552 235.716 196.804 243.187 191.882C250.884 186.852 259.853 184.337 270.096 184.337C279.974 184.337 288.55 186.61 295.823 191.155C303.156 195.64 308.823 201.822 312.823 209.701C316.884 217.579 318.884 226.579 318.823 236.701V317.791C318.823 322.21 315.241 325.791 310.823 325.791H276.641C272.223 325.791 268.641 322.21 268.641 317.791V247.246C268.702 240.337 266.944 234.913 263.368 230.973C259.853 227.034 254.944 225.064 248.641 225.064C244.52 225.064 240.914 225.973 237.823 227.791C234.793 229.549 232.459 232.094 230.823 235.428C229.187 238.701 228.338 242.64 228.278 247.246Z" fill="white"/>
<path d="M370.868 328.701C363.838 328.701 357.808 326.246 352.778 321.337C347.808 316.367 345.353 310.337 345.414 303.246C345.353 296.337 347.808 290.428 352.778 285.519C357.808 280.61 363.838 278.155 370.868 278.155C377.535 278.155 383.414 280.61 388.505 285.519C393.656 290.428 396.262 296.337 396.323 303.246C396.262 307.973 395.02 312.276 392.596 316.155C390.232 319.973 387.141 323.034 383.323 325.337C379.505 327.579 375.353 328.701 370.868 328.701Z" fill="white"/>
</svg>
